Exact Audio Copy V0.99 prebeta 5 from 4. May 2009

EAC extraction logfile from 21. September 2009, 10:40

Various / Armand Van Helden & A-Trak present Duck Sauce

Used drive  : Optiarc DVD RW AD-7201S   Adapter: 4  ID: 0

Read mode               : Secure
Utilize accurate stream : Yes
Defeat audio cache      : Yes
Make use of C2 pointers : No

Read offset correction                      : 48
Overread into Lead-In and Lead-Out          : No
Fill up missing offset samples with silence : Yes
Delete leading and trailing silent blocks   : No
Null samples used in CRC calculations       : No
Used interface                              : Native Win32 interface for Win NT & 2000
Gap handling                                : Appended to previous track

Used output format              : User Defined Encoder
Selected bitrate                : 768 kBit/s
Quality                         : High
Add ID3 tag                     : No
Command line compressor         : C:Program Files (x86)Exact Audio CopyFLACFLAC.EXE
Additional command line options : -8 -V -T "ARTIST=%a" -T "TITLE=%t" -T "ALBUM=%g" -T "DATE=%y" -T "TRACKNUMBER=%n" -T "GENRE=%m" -T "COMMENT=%e" %s -o %d


TOC of the extracted CD

     Track |   Start  |  Length  | Start sector | End sector 
    ---------------------------------------------------------
        1  |  0:00.00 |  2:42.56 |         0    |    12205   
        2  |  2:42.56 |  2:40.53 |     12206    |    24258   
        3  |  5:23.34 |  3:11.63 |     24259    |    38646   
        4  |  8:35.22 |  2:35.37 |     38647    |    50308   
        5  | 11:10.59 |  2:12.72 |     50309    |    60280   
        6  | 13:23.56 |  1:43.08 |     60281    |    68013   
        7  | 15:06.64 |  2:14.52 |     68014    |    78115   
        8  | 17:21.41 |  2:56.39 |     78116    |    91354   
        9  | 20:18.05 |  1:29.66 |     91355    |    98095   
       10  | 21:47.71 |  2:58.40 |     98096    |   111485   
       11  | 24:46.36 |  3:09.58 |    111486    |   125718   
       12  | 27:56.19 |  2:29.40 |    125719    |   136933   
       13  | 30:25.59 |  3:29.67 |    136934    |   152675   
       14  | 33:55.51 |  4:00.00 |    152676    |   170675   
       15  | 37:55.51 |  4:08.46 |    170676    |   189321   


Track  1

     Filename D:MusicNew 1 - Spades.wav

     Pre-gap length  0:00:02.00

     Peak level 100.0 %
     Track quality 100.0 %
     Test CRC 79336B08
     Copy CRC 79336B08
     Track not present in AccurateRip database
     Copy OK

Track  2

     Filename D:MusicNew 2 - Gay Dentists (JFK edit).wav

     Peak level 100.0 %
     Track quality 99.9 %
     Test CRC A81380E1
     Copy CRC A81380E1
     Track not present in AccurateRip database
     Copy OK

Track  3

     Filename D:MusicNew 3 - Psychic Bounty Killaz.wav

     Peak level 100.0 %
     Track quality 100.0 %
     Test CRC B4110FF4
     Copy CRC B4110FF4
     Track not present in AccurateRip database
     Copy OK

Track  4

     Filename D:MusicNew 4 - Jeffer.wav

     Peak level 100.0 %
     Track quality 100.0 %
     Test CRC DC56FCD6
     Copy CRC DC56FCD6
     Track not present in AccurateRip database
     Copy OK

Track  5

     Filename D:MusicNew 5 - 54321 (Voodoo Chill re-edit).wav

     Peak level 100.0 %
     Track quality 100.0 %
     Test CRC 8B329176
     Copy CRC 8B329176
     Track not present in AccurateRip database
     Copy OK

Track  6

     Filename D:MusicNew 6 - Vertigo (Thomas Bangalter's Virgo edit).wav

     Peak level 100.0 %
     Track quality 100.0 %
     Test CRC E82F3C4E
     Copy CRC E82F3C4E
     Track not present in AccurateRip database
     Copy OK

Track  7

     Filename D:MusicNew 7 - Bruxism Groove.wav

     Peak level 100.0 %
     Track quality 100.0 %
     Test CRC 88C56B96
     Copy CRC 88C56B96
     Track not present in AccurateRip database
     Copy OK

Track  8

     Filename D:MusicNew 8 - Magic Carpet Ride (Jason Nevins remix).wav

     Peak level 100.0 %
     Track quality 100.0 %
     Test CRC E4AAE64E
     Copy CRC E4AAE64E
     Track not present in AccurateRip database
     Copy OK

Track  9

     Filename D:MusicNew 9 - I Like It (Riva Starr remix).wav

     Peak level 100.0 %
     Track quality 100.0 %
     Test CRC BABBC143
     Copy CRC BABBC143
     Track not present in AccurateRip database
     Copy OK

Track 10

     Filename D:MusicNew10 - Sexy Dancer.wav

     Peak level 100.0 %
     Track quality 100.0 %
     Test CRC 2FD7985F
     Copy CRC 2FD7985F
     Track not present in AccurateRip database
     Copy OK

Track 11

     Filename D:MusicNew11 - Venus (Sunshine People) (DJ Gregory remix).wav

     Peak level 100.0 %
     Track quality 100.0 %
     Test CRC DA54E2B8
     Copy CRC DA54E2B8
     Track not present in AccurateRip database
     Copy OK

Track 12

     Filename D:MusicNew12 - Lift Me.wav

     Peak level 100.0 %
     Track quality 100.0 %
     Test CRC DA0753FB
     Copy CRC DA0753FB
     Track not present in AccurateRip database
     Copy OK

Track 13

     Filename D:MusicNew13 - Kilometer (A-Trak remix).wav

     Peak level 100.0 %
     Track quality 100.0 %
     Test CRC D226C22F
     Copy CRC D226C22F
     Track not present in AccurateRip database
     Copy OK

Track 14

     Filename D:MusicNew14 - I Want To Wake Up With You.wav

     Peak level 100.0 %
     Track quality 100.0 %
     Test CRC AA492935
     Copy CRC AA492935
     Track not present in AccurateRip database
     Copy OK

Track 15

     Filename D:MusicNew15 - Drivetime.wav

     Peak level 100.0 %
     Track quality 100.0 %
     Test CRC 206BAF6C
     Copy CRC 206BAF6C
     Track not present in AccurateRip database
     Copy OK


None of the tracks are present in the AccurateRip database

No errors occurred

End of status report
